# xmcd CD database file
#
# Track frame offsets:
#	150
#	10022
#	24950
#	38132
#	49462
#	60872
#	73720
#	87962
#	105377
#	114270
#
# Disc length: 1707 seconds
#
# Revision: 0
# Processed by: cddbd v1.5PL3 Copyright (c) Steve Scherf et al.
# Submitted via: CDex 1.51
#
DISCID=6f06a90a
DTITLE=Jayday - Jayday
DYEAR=1992
DGENRE=Blues
TTITLE0=Big Brass Bed
TTITLE1=Girls Keep Swinging
TTITLE2=Junk Yard
TTITLE3=Shoobie Doobie Girl
TTITLE4=Leave The Thinking To Me
TTITLE5=Patio Blues
TTITLE6=Killing Zone
TTITLE7=Midnight Preacher
TTITLE8=Train
TTITLE9=Someone Like You
EXTD=YEAR: 1992
EXTT0=
EXTT1=
EXTT2=
EXTT3=
EXTT4=
EXTT5=
EXTT6=
EXTT7=
EXTT8=
EXTT9=
PLAYORDER=
